{"title":"hot fucking bitch naughty college school girl","uid":6647863,"size":100095458,"categoryP":"porn","categoryS":"movie_clips","magnet":"?xt=urn:btih:8c72e014af42c929bf211e4283af2a992f41c6bf&amp;dn=hot+fucking+bitch+naughty+college+school+girl&amp;tr=udp%3A%2F%2Ftracker.openbittorrent.com%3A80&amp;tr=udp%3A%2F%2Fopen.demonii.com%3A1337&amp;tr=udp%3A%2F%2Ftracker.coppersurfer.tk%3A6969&amp;tr=udp%3A%2F%2Fexodus.desync.com%3A6969","seeders":0,"leechers":0,"uploader":"stu181","files":1,"time":1315014582,"description":"Format : AVI\nFormat/Info : Audio Video Interleave\nFile size : 95.5 MiB\nDuration : 8mn 5s\nOverall bit rate : 1 651 Kbps\n\nVideo\nID : 0\nFormat : MPEG-4 Visual\nFormat profile : Advanced Simple@L5\nFormat settings, BVOP : No\nFormat settings, QPel : No\nFormat settings, GMC : No warppoints\nFormat settings, Matrix : Default (MPEG)\nCodec ID : XVID\nCodec ID/Hint : XviD\nDuration : 8mn 5s\nBit rate : 1 451 Kbps\nWidth : 640 pixels\nHeight : 480 pixels\nDisplay aspect ratio : 4:3\nFrame rate : 25.000 fps\nColor space : YUV\nChroma subsampling : 4:2:0\nBit depth : 8 bits\nScan type : Progressive\nCompression mode : Lossy\nBits/(Pixel*Frame) : 0.189\nStream size : 83.9 MiB (88%)\nWriting library : XviD 1.2.1 (UTC 2008-12-04)\n\nAudio\nID : 1\nFormat : MPEG Audio\nFormat version : Version 1\nFormat profile : Layer 3\nCodec ID : 55\nCodec ID/Hint : MP3\nDuration : 8mn 4s\nBit rate mode : Constant\nBit rate : 192 Kbps\nChannel(s) : 2 channels\nSampling rate : 44.1 KHz\nCompression mode : Lossy\nStream size : 11.1 MiB (12%)\nAlignment : Split accross interleaves\nInterleave, duration : 80 ms (2.00 video frames)\nWriting library : LAMELAME_MAJOR_VERSI","torrent":{"xt":"urn:btih:8c72e014af42c929bf211e4283af2a992f41c6bf","amp;dn":"hot+fucking+bitch+naughty+college+school+girl","amp;tr":["udp%3A%2F%2Ftracker.openbittorrent.com%3A80","udp%3A%2F%2Fopen.demonii.com%3A1337","udp%3A%2F%2Ftracker.coppersurfer.tk%3A6969","udp%3A%2F%2Fexodus.desync.com%3A6969"],"infoHash":"8c72e014af42c929bf211e4283af2a992f41c6bf","infoHashBuffer":{"type":"Buffer","data":[140,114,224,20,175,66,201,41,191,33,30,66,131,175,42,153,47,65,198,191]},"announce":[],"urlList":[]}}